<svg width="84" height="84" viewBox="0 0 84 84" fill="none" xmlns="http://www.w3.org/2000/svg">
<path d="M82.1164 69.4237V8.75109H70.5943V8.75077H65.8507C65.4808 7.23844 64.1178 6.11133 62.493 6.11133H54.6476C53.023 6.11133 51.6598 7.23844 51.2899 8.75077H46.579V8.75109H35.0583V55.4941H36.699V10.3917H46.579V16.6934H70.5943V10.3917H80.4758V68.2638H72.4913V76.248H36.6988V63.9434H35.0582V77.8887H73.6511L82.1164 69.4237ZM54.6474 7.75195H62.4929C63.201 7.75195 63.8159 8.15866 64.1164 8.75077H53.0237C53.3242 8.15866 53.9392 7.75195 54.6474 7.75195ZM68.9535 15.0527H48.2194V10.3917H51.1873H65.953H68.9535V15.0527ZM79.3154 69.9044L74.1318 75.0878V69.9044H79.3154Z" fill="#D62828"/>
<path d="M65.1326 11.9017H52.0076V13.5424H65.1326V11.9017Z" fill="#D62828"/>
<path d="M68.808 20.3142V24.1935H64.9287V28.9513H68.808V32.8305H73.5658V28.9513H77.445V24.1935H73.5658V20.3142H68.808ZM75.8044 25.8341V27.3107H71.9252V31.1899H70.4486V27.3107H66.5693V25.8341H70.4486V21.9548H71.9252V25.8341H75.8044Z" fill="#D62828"/>
<path d="M49.9224 72.2557H39.9249V73.8964H49.9224V72.2557Z" fill="#D62828"/>
<path d="M76.6247 37.7162H60.1762V39.3568H76.6247V37.7162Z" fill="#D62828"/>
<path d="M58.2484 37.7162H55.9181V39.3568H58.2484V37.7162Z" fill="#D62828"/>
<path d="M76.6247 40.5919H50.5785V42.2325H76.6247V40.5919Z" fill="#D62828"/>
<path d="M76.6247 56.3112H60.1762V57.9518H76.6247V56.3112Z" fill="#D62828"/>
<path d="M58.2484 56.3112H55.9181V57.9518H58.2484V56.3112Z" fill="#D62828"/>
<path d="M76.6247 59.1869H50.5785V60.8275H76.6247V59.1869Z" fill="#D62828"/>
<path d="M76.6247 47.0138H60.1762V48.6544H76.6247V47.0138Z" fill="#D62828"/>
<path d="M58.2484 47.0138H55.9181V48.6544H58.2484V47.0138Z" fill="#D62828"/>
<path d="M76.6247 49.8895H50.5785V51.5302H76.6247V49.8895Z" fill="#D62828"/>
<path d="M15.0947 58.0717V68.6938C15.0947 73.301 18.8431 77.0495 23.4503 77.0495C28.0575 77.0495 31.8058 73.301 31.8058 68.6938V67.0932C31.8058 64.5737 33.8556 62.5237 36.3751 62.5237C41.7541 62.5237 46.1301 58.1477 46.1301 52.7688V37.716H44.3435V34.5872C47.0328 34.1892 49.1032 31.866 49.1032 29.0678C49.1032 25.991 46.6 23.4877 43.5231 23.4877C40.4463 23.4877 37.9431 25.991 37.9431 29.0678C37.9431 31.866 40.0135 34.1892 42.7028 34.5872V37.716H40.9444V52.7688C40.9444 55.2883 38.8946 57.3382 36.3749 57.3382C30.9962 57.3382 26.6201 61.7144 26.6201 67.0932V68.6938C26.6201 70.4417 25.198 71.8637 23.4503 71.8637C21.7025 71.8637 20.2804 70.4417 20.2804 68.6938V58.0717C27.8622 56.8198 33.4914 50.2425 33.4914 42.4817V28.2478H31.6791V18.5013H28.7122C28.5459 16.7703 27.838 15.7271 26.7811 15.7271C24.799 15.7271 23.1865 17.3396 23.1865 19.3217C23.1865 21.3037 24.799 22.9164 26.7811 22.9164C27.1975 22.9164 27.963 22.734 28.4127 21.5125C28.5559 21.1231 28.6558 20.652 28.7083 20.142H30.0384V28.2478H28.3057V42.4817C28.3057 48.3366 23.5425 53.0998 17.6874 53.0998C11.8323 53.0998 7.06912 48.3366 7.06912 42.4817V35.8887H5.4285V42.4817C5.4285 49.2411 10.9279 54.7405 17.6874 54.7405C24.4469 54.7405 29.9463 49.2411 29.9463 42.4817V29.8884H31.8506V42.4817C31.8506 49.6562 26.4821 55.7022 19.3635 56.5453L18.6396 56.6308V68.6938C18.6396 71.3464 20.7975 73.5043 23.4501 73.5043C26.1027 73.5043 28.2606 71.3464 28.2606 68.6938V67.0932C28.2606 62.6191 31.9006 58.9788 36.3748 58.9788C39.7989 58.9788 42.5849 56.1932 42.5849 52.7688V39.3566H44.4892V52.7688C44.4892 57.2431 40.8489 60.8831 36.3748 60.8831C32.9506 60.8831 30.1649 63.6689 30.1649 67.0932V68.6938C30.1649 72.3964 27.1527 75.4089 23.4499 75.4089C19.7472 75.4089 16.735 72.3965 16.735 68.6938V56.6308L16.0112 56.5453C8.89235 55.7022 3.52406 49.6563 3.52406 42.4817V29.8884H5.42833V33.8277H7.06896V28.2478H5.27149V20.142H6.59761C6.76397 21.873 7.47189 22.9164 8.52879 22.9164C10.5108 22.9164 12.1234 21.3039 12.1234 19.3217C12.1234 17.3395 10.5108 15.7271 8.52879 15.7271C8.11239 15.7271 7.34688 15.9095 6.89718 17.1309C6.75379 17.5204 6.65404 17.9913 6.60154 18.5013H3.63086V28.2478H1.8836V42.4817C1.8836 50.2425 7.51291 56.8198 15.0947 58.0717ZM39.5835 29.068C39.5835 26.8958 41.3506 25.1285 43.523 25.1285C45.6953 25.1285 47.4625 26.8956 47.4625 29.068C47.4625 31.2403 45.6953 33.0074 43.523 33.0074C41.3506 33.0074 39.5835 31.2403 39.5835 29.068ZM26.7077 21.2743C25.6643 21.2356 24.8271 20.3744 24.8271 19.3217C24.8271 18.2689 25.6643 17.4077 26.7077 17.369C26.8634 17.5496 27.1098 18.2336 27.1098 19.3217C27.1098 20.4097 26.8634 21.0937 26.7077 21.2743ZM8.60212 17.369C9.64556 17.4077 10.4828 18.2687 10.4828 19.3217C10.4828 20.3746 9.64556 21.2356 8.60212 21.2743C8.44643 21.0937 8.2 20.4097 8.2 19.3217C8.19984 18.2336 8.44626 17.5495 8.60212 17.369Z" fill="#D62828"/>
<path d="M46.2679 29.0679C46.2679 27.5544 45.0366 26.3231 43.5231 26.3231C42.0097 26.3231 40.7784 27.5544 40.7784 29.0679C40.7784 30.5814 42.0097 31.8127 43.5231 31.8127C45.0366 31.8127 46.2679 30.5814 46.2679 29.0679ZM42.4188 29.0679C42.4188 28.459 42.9143 27.9637 43.523 27.9637C44.1317 27.9637 44.6271 28.459 44.6271 29.0679C44.6271 29.6767 44.1317 30.172 43.523 30.172C42.9143 30.172 42.4188 29.6769 42.4188 29.0679Z" fill="#D62828"/>
</svg>
