<svg width="135" height="41" viewBox="0 0 135 41" fill="none" xmlns="http://www.w3.org/2000/svg">
<path d="M19 2.79166C18.4107 2.79034 17.8363 2.97739 17.3608 3.32552C16.8852 3.67365 16.5334 4.16465 16.3566 4.72685C16.1798 5.28906 16.1873 5.89306 16.378 6.4507C16.5687 7.00834 16.9326 7.49045 17.4167 7.82666V10.0433C15.9917 10.2492 14.6617 10.7083 13.4583 11.405L11.7008 8.8875C12.0017 8.06416 11.9225 7.11416 11.3842 6.35416C10.83 5.57833 9.97502 5.16666 9.10418 5.16666C8.55002 5.16666 7.99585 5.325 7.52085 5.67333C6.27002 6.54416 5.95335 8.27 6.84002 9.52083C7.37835 10.2967 8.23335 10.7083 9.10418 10.7083L10.9725 13.3683C10.2917 14.0492 9.75335 14.8092 9.29418 15.6483C8.97752 15.5217 8.64502 15.4583 8.31252 15.4583C7.60002 15.4583 6.88752 15.7275 6.33335 16.25C5.27252 17.3583 5.27252 19.1 6.33335 20.2083C6.79252 20.6358 7.34668 20.8733 7.91668 21C7.91668 21.855 8.02752 22.6783 8.20168 23.47L6.12752 24.0242C5.63668 23.6125 5.00335 23.375 4.35418 23.375C4.11668 23.375 3.86335 23.375 3.62585 23.47C2.91629 23.6634 2.31256 24.1306 1.94737 24.7689C1.58217 25.4073 1.48541 26.1645 1.67835 26.8742C2.01085 28.125 3.16668 28.9167 4.35418 28.9167C4.59168 28.9167 4.82918 28.9167 5.08252 28.8217C5.98502 28.5683 6.66585 27.9033 6.95085 27.08L9.34168 26.4308C10.0542 27.6817 11.0042 28.79 12.1125 29.7083L10.3708 32.875C9.50002 33.0017 8.70835 33.4925 8.24918 34.3317C8.0766 34.6519 7.96878 35.0029 7.93188 35.3648C7.89498 35.7267 7.92971 36.0923 8.0341 36.4407C8.13849 36.7892 8.31048 37.1137 8.54027 37.3956C8.77006 37.6776 9.05314 37.9116 9.37335 38.0842C9.69355 38.2567 10.0446 38.3646 10.4065 38.4015C10.7684 38.4384 11.134 38.4036 11.4824 38.2992C11.8309 38.1949 12.1554 38.0229 12.4373 37.7931C12.7193 37.5633 12.9533 37.2802 13.1258 36.96C13.5692 36.1367 13.5533 35.1867 13.1575 34.4108L14.8517 31.2917C16.1342 31.7983 17.5275 32.0833 19 32.0833H19.285C19.0792 32.495 19 32.97 19 33.4767C19.1267 34.9333 20.33 36.0417 21.7708 36.0417H21.9767C23.5125 35.915 24.6525 34.585 24.5417 33.065C24.4783 32.2733 24.0825 31.5767 23.5125 31.1175C24.2567 30.785 24.9692 30.3575 25.6342 29.8667L29.3392 33.5717C29.1808 34.4583 29.4342 35.3608 30.0833 36.0417C30.6375 36.5642 31.35 36.8333 32.0625 36.8333C32.775 36.8333 33.4875 36.5642 34.0417 36.0417C35.1025 34.9333 35.1025 33.1917 34.0417 32.0833C33.4875 31.5608 32.775 31.2917 32.0625 31.2917C31.9042 31.2917 31.7458 31.2917 31.5717 31.3392L27.8667 27.6342C28.6425 26.605 29.2442 25.4333 29.6242 24.1667H31.3817C31.7179 24.6507 32.2 25.0146 32.7576 25.2053C33.3153 25.396 33.9193 25.4035 34.4815 25.2267C35.0437 25.0499 35.5347 24.6981 35.8828 24.2226C36.231 23.747 36.418 23.1727 36.4167 22.5833C36.418 21.994 36.231 21.4196 35.8828 20.9441C35.5347 20.4686 35.0437 20.1167 34.4815 19.9399C33.9193 19.7631 33.3153 19.7706 32.7576 19.9613C32.2 20.152 31.7179 20.516 31.3817 21H30.0833C30.0833 18.5142 29.2917 16.25 27.8667 14.3658L29.9883 12.2442C30.1625 12.2917 30.3208 12.2917 30.4792 12.2917C31.1917 12.2917 31.9042 12.0225 32.4583 11.5C33.5192 10.4075 33.5192 8.65 32.4583 7.54166C31.9042 7.01916 31.1917 6.75 30.4792 6.75C29.7667 6.75 29.0542 7.01916 28.5 7.54166C27.8508 8.2225 27.5975 9.125 27.7558 10.0117L25.6342 12.1333C24.1775 11.0408 22.4675 10.3125 20.5833 10.0433V7.82666C21.0674 7.49045 21.4313 7.00834 21.622 6.4507C21.8127 5.89306 21.8202 5.28906 21.6434 4.72685C21.4666 4.16465 21.1148 3.67365 20.6393 3.32552C20.1637 2.97739 19.5894 2.79034 19 2.79166ZM19 28.9167C14.63 28.9167 11.0833 25.37 11.0833 21C11.0833 16.63 14.63 13.0833 19 13.0833C23.37 13.0833 26.9167 16.63 26.9167 21C26.9167 25.37 23.37 28.9167 19 28.9167ZM16.625 16.25C15.3108 16.25 14.25 17.3108 14.25 18.625C14.25 19.9392 15.3108 21 16.625 21C17.9392 21 19 19.9392 19 18.625C19 17.3108 17.9392 16.25 16.625 16.25ZM22.1667 22.5833C21.2958 22.5833 20.5833 23.2958 20.5833 24.1667C20.5833 25.0375 21.2958 25.75 22.1667 25.75C23.0375 25.75 23.75 25.0375 23.75 24.1667C23.75 23.2958 23.0375 22.5833 22.1667 22.5833Z" fill="#F77F00"/>
<path d="M47.14 19.2C45.2333 19.2 43.74 18.74 42.66 17.82C41.5933 16.8867 41.0267 15.54 40.96 13.78C40.9467 13.42 40.94 12.8333 40.94 12.02C40.94 11.1933 40.9467 10.5933 40.96 10.22C41.0267 8.48667 41.6067 7.15333 42.7 6.22C43.7933 5.27333 45.2733 4.8 47.14 4.8C48.3133 4.8 49.3667 5 50.3 5.4C51.2333 5.78667 51.9667 6.34667 52.5 7.08C53.0467 7.8 53.3267 8.64667 53.34 9.62V9.66C53.34 9.76667 53.2933 9.86 53.2 9.94C53.12 10.0067 53.0267 10.04 52.92 10.04H50.22C50.0467 10.04 49.9133 10.0067 49.82 9.94C49.7267 9.86 49.6467 9.72 49.58 9.52C49.3933 8.84 49.1 8.36667 48.7 8.1C48.3 7.82 47.7733 7.68 47.12 7.68C45.5467 7.68 44.7333 8.56 44.68 10.32C44.6667 10.68 44.66 11.2333 44.66 11.98C44.66 12.7267 44.6667 13.2933 44.68 13.68C44.7333 15.44 45.5467 16.32 47.12 16.32C47.7733 16.32 48.3067 16.18 48.72 15.9C49.1333 15.6067 49.42 15.1333 49.58 14.48C49.6333 14.28 49.7067 14.1467 49.8 14.08C49.8933 14 50.0333 13.96 50.22 13.96H52.92C53.04 13.96 53.14 14 53.22 14.08C53.3133 14.16 53.3533 14.26 53.34 14.38C53.3267 15.3533 53.0467 16.2067 52.5 16.94C51.9667 17.66 51.2333 18.22 50.3 18.62C49.3667 19.0067 48.3133 19.2 47.14 19.2ZM61.163 19.2C59.283 19.2 57.803 18.74 56.723 17.82C55.643 16.9 55.0696 15.5467 55.003 13.76C54.9896 13.3733 54.983 12.8 54.983 12.04C54.983 11.2667 54.9896 10.6867 55.003 10.3C55.0696 8.54 55.6496 7.18667 56.743 6.24C57.8496 5.28 59.323 4.8 61.163 4.8C63.003 4.8 64.4763 5.28 65.583 6.24C66.6896 7.18667 67.2696 8.54 67.323 10.3C67.3496 11.0733 67.363 11.6533 67.363 12.04C67.363 12.4133 67.3496 12.9867 67.323 13.76C67.2563 15.5467 66.683 16.9 65.603 17.82C64.523 18.74 63.043 19.2 61.163 19.2ZM61.163 16.32C61.8963 16.32 62.4763 16.1 62.903 15.66C63.343 15.22 63.5763 14.5467 63.603 13.64C63.6296 12.8667 63.643 12.32 63.643 12C63.643 11.6533 63.6296 11.1067 63.603 10.36C63.5763 9.45333 63.343 8.78 62.903 8.34C62.463 7.9 61.883 7.68 61.163 7.68C60.443 7.68 59.863 7.9 59.423 8.34C58.9963 8.78 58.763 9.45333 58.723 10.36C58.7096 10.7333 58.703 11.28 58.703 12C58.703 12.7067 58.7096 13.2533 58.723 13.64C58.763 14.5467 58.9963 15.22 59.423 15.66C59.8496 16.1 60.4296 16.32 61.163 16.32ZM73.232 19C72.8054 19 72.532 18.8 72.412 18.4L68.332 5.6L68.292 5.42C68.292 5.31333 68.332 5.22 68.412 5.14C68.5054 5.04667 68.612 5 68.732 5H71.212C71.3987 5 71.552 5.05333 71.672 5.16C71.8054 5.26667 71.892 5.38667 71.932 5.52L74.772 14.76L77.592 5.52C77.632 5.38667 77.712 5.26667 77.832 5.16C77.9654 5.05333 78.1254 5 78.312 5H80.812C80.9187 5 81.012 5.04667 81.092 5.14C81.1854 5.22 81.232 5.31333 81.232 5.42L81.192 5.6L77.112 18.4C76.992 18.8 76.7187 19 76.292 19H73.232ZM83.5992 19C83.4659 19 83.3459 18.9533 83.2392 18.86C83.1459 18.7533 83.0992 18.6333 83.0992 18.5V5.5C83.0992 5.35333 83.1459 5.23333 83.2392 5.14C83.3459 5.04667 83.4659 5 83.5992 5H86.2792C86.4259 5 86.5459 5.04667 86.6392 5.14C86.7459 5.23333 86.7992 5.35333 86.7992 5.5V18.5C86.7992 18.6467 86.7459 18.7667 86.6392 18.86C86.5459 18.9533 86.4259 19 86.2792 19H83.5992ZM90.0836 19C89.9503 19 89.8303 18.9533 89.7236 18.86C89.6303 18.7533 89.5836 18.6333 89.5836 18.5V5.5C89.5836 5.35333 89.6303 5.23333 89.7236 5.14C89.8303 5.04667 89.9503 5 90.0836 5H95.2836C97.2436 5 98.7636 5.46667 99.8436 6.4C100.924 7.33333 101.49 8.68667 101.544 10.46C101.557 10.8467 101.564 11.36 101.564 12C101.564 12.64 101.557 13.1467 101.544 13.52C101.477 15.3733 100.924 16.7533 99.8836 17.66C98.8569 18.5533 97.3569 19 95.3836 19H90.0836ZM95.2836 16.12C96.1636 16.12 96.8103 15.9133 97.2236 15.5C97.6369 15.0733 97.8569 14.4 97.8836 13.48C97.9103 13.0933 97.9236 12.5933 97.9236 11.98C97.9236 11.3667 97.9103 10.8733 97.8836 10.5C97.8569 9.60667 97.6169 8.94667 97.1636 8.52C96.7236 8.09333 96.0636 7.88 95.1836 7.88H93.1836V16.12H95.2836ZM104.14 14.44C103.993 14.44 103.873 14.3933 103.78 14.3C103.687 14.2067 103.64 14.0867 103.64 13.94V12.06C103.64 11.9133 103.687 11.7933 103.78 11.7C103.873 11.6067 103.993 11.56 104.14 11.56H110.4C110.547 11.56 110.667 11.6067 110.76 11.7C110.867 11.7933 110.92 11.9133 110.92 12.06V13.94C110.92 14.0867 110.867 14.2067 110.76 14.3C110.667 14.3933 110.547 14.44 110.4 14.44H104.14ZM117.024 19C116.891 19 116.771 18.9533 116.664 18.86C116.571 18.7533 116.524 18.6333 116.524 18.5V8.98L113.784 11.08C113.691 11.16 113.591 11.2 113.484 11.2C113.338 11.2 113.204 11.12 113.084 10.96L111.904 9.42C111.838 9.31333 111.804 9.21333 111.804 9.12C111.804 8.93333 111.884 8.79333 112.044 8.7L116.644 5.14C116.791 5.04667 116.951 5 117.124 5H119.624C119.771 5 119.891 5.04667 119.984 5.14C120.078 5.23333 120.124 5.35333 120.124 5.5V18.5C120.124 18.6333 120.078 18.7533 119.984 18.86C119.891 18.9533 119.771 19 119.624 19H117.024ZM124.906 19C124.786 19 124.686 18.96 124.606 18.88C124.526 18.7867 124.486 18.68 124.486 18.56C124.486 18.4667 124.512 18.38 124.566 18.3L127.386 14.44C127.212 14.48 127.019 14.5 126.806 14.5C125.979 14.4467 125.199 14.22 124.466 13.82C123.732 13.42 123.139 12.8733 122.686 12.18C122.232 11.4867 122.006 10.6933 122.006 9.8C122.006 8.92 122.226 8.1 122.666 7.34C123.106 6.58 123.752 5.96667 124.606 5.5C125.472 5.03333 126.512 4.8 127.726 4.8C128.952 4.8 130.006 5.01333 130.886 5.44C131.779 5.86667 132.452 6.45333 132.906 7.2C133.359 7.93333 133.586 8.75333 133.586 9.66C133.586 10.3933 133.432 11.06 133.126 11.66C132.832 12.26 132.392 12.9667 131.806 13.78C131.779 13.8067 131.672 13.9533 131.486 14.22L128.286 18.6C128.099 18.8667 127.859 19 127.566 19H124.906ZM127.766 11.86C128.379 11.86 128.886 11.6733 129.286 11.3C129.686 10.9267 129.886 10.42 129.886 9.78C129.886 9.14 129.686 8.63333 129.286 8.26C128.886 7.87333 128.379 7.68 127.766 7.68C127.152 7.68 126.646 7.87333 126.246 8.26C125.859 8.63333 125.666 9.14 125.666 9.78C125.666 10.42 125.866 10.9267 126.266 11.3C126.666 11.6733 127.166 11.86 127.766 11.86Z" fill="#D62828"/>
<path d="M44.98 36C44.8467 36 44.7267 35.9533 44.62 35.86C44.5267 35.7533 44.48 35.6333 44.48 35.5V25.14H40.92C40.7867 25.14 40.6667 25.0933 40.56 25C40.4667 24.8933 40.42 24.7733 40.42 24.64V22.5C40.42 22.3533 40.4667 22.2333 40.56 22.14C40.6667 22.0467 40.7867 22 40.92 22H51.68C51.8267 22 51.9467 22.0467 52.04 22.14C52.1333 22.2333 52.18 22.3533 52.18 22.5V24.64C52.18 24.7867 52.1333 24.9067 52.04 25C51.9467 25.0933 51.8267 25.14 51.68 25.14H48.12V35.5C48.12 35.6333 48.0733 35.7533 47.98 35.86C47.8867 35.9533 47.7667 36 47.62 36H44.98ZM54.4977 36C54.3643 36 54.2443 35.9533 54.1377 35.86C54.0443 35.7533 53.9977 35.6333 53.9977 35.5V22.5C53.9977 22.3533 54.0443 22.2333 54.1377 22.14C54.2443 22.0467 54.3643 22 54.4977 22H59.9377C61.6843 22 63.0443 22.4 64.0177 23.2C65.0043 23.9867 65.4977 25.1067 65.4977 26.56C65.4977 27.4933 65.2777 28.2867 64.8377 28.94C64.3977 29.5933 63.791 30.0933 63.0177 30.44L65.7577 35.36C65.7977 35.44 65.8177 35.5133 65.8177 35.58C65.8177 35.6867 65.771 35.7867 65.6777 35.88C65.5977 35.96 65.5043 36 65.3977 36H62.7377C62.351 36 62.0777 35.82 61.9177 35.46L59.6377 31.06H57.5977V35.5C57.5977 35.6467 57.5443 35.7667 57.4377 35.86C57.3443 35.9533 57.2243 36 57.0777 36H54.4977ZM59.8977 28.22C60.511 28.22 60.9777 28.0733 61.2977 27.78C61.6177 27.4733 61.7777 27.0533 61.7777 26.52C61.7777 25.9867 61.6177 25.5667 61.2977 25.26C60.991 24.94 60.5243 24.78 59.8977 24.78H57.5977V28.22H59.8977ZM67.0258 36C66.9191 36 66.8191 35.96 66.7258 35.88C66.6458 35.7867 66.6058 35.6867 66.6058 35.58C66.6058 35.5 66.6124 35.44 66.6258 35.4L71.3258 22.56C71.3658 22.4 71.4524 22.2667 71.5858 22.16C71.7191 22.0533 71.8924 22 72.1058 22H75.0658C75.2791 22 75.4524 22.0533 75.5858 22.16C75.7191 22.2667 75.8058 22.4 75.8458 22.56L80.5258 35.4L80.5658 35.58C80.5658 35.6867 80.5191 35.7867 80.4258 35.88C80.3458 35.96 80.2458 36 80.1258 36H77.6658C77.3458 36 77.1324 35.86 77.0258 35.58L76.2458 33.54H70.9058L70.1458 35.58C70.0391 35.86 69.8191 36 69.4858 36H67.0258ZM75.4458 30.66L73.5858 25.38L71.7258 30.66H75.4458ZM87.5892 36.2C85.6826 36.2 84.1892 35.74 83.1092 34.82C82.0426 33.8867 81.4759 32.54 81.4092 30.78C81.3959 30.42 81.3892 29.8333 81.3892 29.02C81.3892 28.1933 81.3959 27.5933 81.4092 27.22C81.4759 25.4867 82.0559 24.1533 83.1492 23.22C84.2426 22.2733 85.7226 21.8 87.5892 21.8C88.7626 21.8 89.8159 22 90.7492 22.4C91.6826 22.7867 92.4159 23.3467 92.9492 24.08C93.4959 24.8 93.7759 25.6467 93.7892 26.62V26.66C93.7892 26.7667 93.7426 26.86 93.6492 26.94C93.5692 27.0067 93.4759 27.04 93.3692 27.04H90.6692C90.4959 27.04 90.3626 27.0067 90.2692 26.94C90.1759 26.86 90.0959 26.72 90.0292 26.52C89.8426 25.84 89.5492 25.3667 89.1492 25.1C88.7492 24.82 88.2226 24.68 87.5692 24.68C85.9959 24.68 85.1826 25.56 85.1292 27.32C85.1159 27.68 85.1092 28.2333 85.1092 28.98C85.1092 29.7267 85.1159 30.2933 85.1292 30.68C85.1826 32.44 85.9959 33.32 87.5692 33.32C88.2226 33.32 88.7559 33.18 89.1692 32.9C89.5826 32.6067 89.8692 32.1333 90.0292 31.48C90.0826 31.28 90.1559 31.1467 90.2492 31.08C90.3426 31 90.4826 30.96 90.6692 30.96H93.3692C93.4892 30.96 93.5892 31 93.6692 31.08C93.7626 31.16 93.8026 31.26 93.7892 31.38C93.7759 32.3533 93.4959 33.2067 92.9492 33.94C92.4159 34.66 91.6826 35.22 90.7492 35.62C89.8159 36.0067 88.7626 36.2 87.5892 36.2ZM96.3922 36C96.2589 36 96.1389 35.9533 96.0322 35.86C95.9389 35.7533 95.8922 35.6333 95.8922 35.5V22.5C95.8922 22.3533 95.9389 22.2333 96.0322 22.14C96.1389 22.0467 96.2589 22 96.3922 22H98.9122C99.0589 22 99.1789 22.0467 99.2722 22.14C99.3655 22.2333 99.4122 22.3533 99.4122 22.5V26.94L103.112 22.38C103.272 22.1267 103.532 22 103.892 22H106.772C106.892 22 106.992 22.0467 107.072 22.14C107.152 22.22 107.192 22.3133 107.192 22.42C107.192 22.5133 107.172 22.5933 107.132 22.66L102.332 28.7L107.492 35.34C107.546 35.3933 107.572 35.4733 107.572 35.58C107.572 35.6867 107.532 35.7867 107.452 35.88C107.372 35.96 107.272 36 107.152 36H104.172C103.852 36 103.586 35.8667 103.372 35.6L99.4122 30.66V35.5C99.4122 35.6467 99.3655 35.7667 99.2722 35.86C99.1789 35.9533 99.0589 36 98.9122 36H96.3922ZM109.654 36C109.521 36 109.401 35.9533 109.294 35.86C109.201 35.7533 109.154 35.6333 109.154 35.5V22.5C109.154 22.3533 109.201 22.2333 109.294 22.14C109.401 22.0467 109.521 22 109.654 22H118.994C119.141 22 119.261 22.0467 119.354 22.14C119.447 22.2333 119.494 22.3533 119.494 22.5V24.38C119.494 24.5133 119.447 24.6333 119.354 24.74C119.261 24.8333 119.141 24.88 118.994 24.88H112.614V27.58H118.554C118.701 27.58 118.821 27.6333 118.914 27.74C119.007 27.8333 119.054 27.9533 119.054 28.1V29.84C119.054 29.9733 119.007 30.0933 118.914 30.2C118.821 30.2933 118.701 30.34 118.554 30.34H112.614V33.12H119.154C119.301 33.12 119.421 33.1667 119.514 33.26C119.607 33.3533 119.654 33.4733 119.654 33.62V35.5C119.654 35.6333 119.607 35.7533 119.514 35.86C119.421 35.9533 119.301 36 119.154 36H109.654ZM122.427 36C122.294 36 122.174 35.9533 122.067 35.86C121.974 35.7533 121.927 35.6333 121.927 35.5V22.5C121.927 22.3533 121.974 22.2333 122.067 22.14C122.174 22.0467 122.294 22 122.427 22H127.867C129.614 22 130.974 22.4 131.947 23.2C132.934 23.9867 133.427 25.1067 133.427 26.56C133.427 27.4933 133.207 28.2867 132.767 28.94C132.327 29.5933 131.721 30.0933 130.947 30.44L133.687 35.36C133.727 35.44 133.747 35.5133 133.747 35.58C133.747 35.6867 133.701 35.7867 133.607 35.88C133.527 35.96 133.434 36 133.327 36H130.667C130.281 36 130.007 35.82 129.847 35.46L127.567 31.06H125.527V35.5C125.527 35.6467 125.474 35.7667 125.367 35.86C125.274 35.9533 125.154 36 125.007 36H122.427ZM127.827 28.22C128.441 28.22 128.907 28.0733 129.227 27.78C129.547 27.4733 129.707 27.0533 129.707 26.52C129.707 25.9867 129.547 25.5667 129.227 25.26C128.921 24.94 128.454 24.78 127.827 24.78H125.527V28.22H127.827Z" fill="#D62828"/>
</svg>
