<svg width="84" height="84" viewBox="0 0 84 84" fill="none" xmlns="http://www.w3.org/2000/svg">
<path d="M15.75 69.5625C16.4745 69.5625 17.0625 68.9745 17.0625 68.25C17.0625 67.5255 16.4745 66.9375 15.75 66.9375C15.0255 66.9375 14.4375 67.5255 14.4375 68.25C14.4375 68.9745 15.0255 69.5625 15.75 69.5625Z" fill="#D62828"/>
<path d="M14.4375 59.0625V61.8201C13.6014 61.9907 12.8244 62.3241 12.1367 62.7808L10.1811 60.8252L8.32519 62.6811L10.2808 64.6367C9.82406 65.3258 9.49069 66.1014 9.32006 66.9375H6.5625V69.5625H9.32006C9.49069 70.3986 9.82406 71.1742 10.2808 71.8633L8.32519 73.8189L10.1811 75.6748L12.1367 73.7192C12.8244 74.1759 13.6014 74.5093 14.4375 74.6799V77.4375H17.0625V74.6799C17.8986 74.5093 18.6756 74.1759 19.3633 73.7192L21.3189 75.6748L23.1748 73.8189L21.2192 71.8633C21.6759 71.1756 22.0093 70.3986 22.1799 69.5625H24.9375V66.9375H22.1799C22.0093 66.1014 21.6759 65.3258 21.2192 64.6367L23.1748 62.6811L21.3189 60.8252L19.3633 62.7808C18.6756 62.3241 17.8986 61.9907 17.0625 61.8201V59.0625H14.4375ZM19.6875 68.25C19.6875 70.4209 17.9209 72.1875 15.75 72.1875C13.5791 72.1875 11.8125 70.4209 11.8125 68.25C11.8125 66.0791 13.5791 64.3125 15.75 64.3125C17.9209 64.3125 19.6875 66.0791 19.6875 68.25Z" fill="#D62828"/>
<path d="M1.3125 68.25C1.3125 76.2103 7.78969 82.6875 15.75 82.6875C23.7103 82.6875 30.1875 76.2103 30.1875 68.25C30.1875 61.6403 25.7158 56.0661 19.6429 54.3611C19.4145 50.253 16.5559 46.8143 12.4924 45.9113L7.875 44.8849V39.375H11.6274C13.8272 39.375 15.8681 38.283 17.0874 36.4521L18.1532 34.8521C18.3619 34.5398 18.4262 34.1512 18.3291 33.7864C18.2332 33.4228 17.9839 33.117 17.6479 32.949L14.7472 31.5L17.6492 30.0497C18.0941 29.8266 18.375 29.3724 18.375 28.875V25.8838L21.4147 24.8706C21.8151 24.7367 22.1261 24.4204 22.2521 24.0174C22.3781 23.6145 22.302 23.1761 22.0487 22.8401L18.375 17.9379V10.5C18.375 5.43506 14.2537 1.3125 9.1875 1.3125H1.3125V3.9375H9.1875C12.8061 3.9375 15.75 6.88144 15.75 10.5V18.375C15.75 18.6598 15.8419 18.9354 16.0125 19.1625L18.8567 22.9569L16.6464 23.6946C16.1109 23.8717 15.75 24.3718 15.75 24.9375V28.0639L11.2258 30.3266C10.7809 30.5484 10.5 31.0026 10.5 31.5C10.5 31.9974 10.7809 32.4516 11.2258 32.6747L15.1462 34.6343L14.9047 34.9965C14.1724 36.0951 12.9478 36.75 11.6274 36.75H6.5625C5.838 36.75 5.25 37.3367 5.25 38.0625V45.9375C5.25 46.5531 5.67788 47.0846 6.27769 47.2198L11.9241 48.4746C14.6147 49.0717 16.5743 51.2256 16.9772 53.8755C16.5716 53.8401 16.1648 53.8125 15.75 53.8125C7.78969 53.8125 1.3125 60.2897 1.3125 68.25ZM27.5625 68.25C27.5625 74.7639 22.2626 80.0625 15.75 80.0625C9.23738 80.0625 3.9375 74.7639 3.9375 68.25C3.9375 61.7361 9.23738 56.4375 15.75 56.4375C22.2626 56.4375 27.5625 61.7361 27.5625 68.25Z" fill="#D62828"/>
<path d="M49.35 13.3875C48.9497 13.0869 48.4194 13.041 47.9758 13.2628C47.5309 13.4859 47.25 13.94 47.25 14.4375V17.0625H30.1875V19.6875H47.25V22.3125C47.25 22.8099 47.5309 23.264 47.9758 23.4872C48.1609 23.579 48.363 23.625 48.5625 23.625C48.8407 23.625 49.1177 23.537 49.35 23.3625L54.6 19.425C54.9307 19.1782 55.125 18.7884 55.125 18.375C55.125 17.9615 54.9307 17.573 54.6 17.325L49.35 13.3875ZM49.875 19.6875V17.0625L51.6246 18.375L49.875 19.6875Z" fill="#D62828"/>
<path d="M23.625 34.125C24.3495 34.125 24.9375 33.537 24.9375 32.8125C24.9375 32.088 24.3495 31.5 23.625 31.5C22.9005 31.5 22.3125 32.088 22.3125 32.8125C22.3125 33.537 22.9005 34.125 23.625 34.125Z" fill="#D62828"/>
<path d="M30.1875 31.5C30.912 31.5 31.5 30.912 31.5 30.1875C31.5 29.463 30.912 28.875 30.1875 28.875C29.463 28.875 28.875 29.463 28.875 30.1875C28.875 30.912 29.463 31.5 30.1875 31.5Z" fill="#D62828"/>
<path d="M30.1875 43.3125C29.463 43.3125 28.875 43.9005 28.875 44.625C28.875 45.3495 29.463 45.9375 30.1875 45.9375C30.912 45.9375 31.5 45.3495 31.5 44.625C31.5 43.9005 30.912 43.3125 30.1875 43.3125Z" fill="#D62828"/>
<path d="M44.625 38.0625C45.3495 38.0625 45.9375 37.4745 45.9375 36.75C45.9375 36.0255 45.3495 35.4375 44.625 35.4375C43.9005 35.4375 43.3125 36.0255 43.3125 36.75C43.3125 37.4745 43.9005 38.0625 44.625 38.0625Z" fill="#D62828"/>
<path d="M39.375 44.625C40.0995 44.625 40.6875 44.037 40.6875 43.3125C40.6875 42.588 40.0995 42 39.375 42C38.6505 42 38.0625 42.588 38.0625 43.3125C38.0625 44.037 38.6505 44.625 39.375 44.625Z" fill="#D62828"/>
<path d="M28.875 35.4375C28.1505 35.4375 27.5625 36.0255 27.5625 36.75C27.5625 37.4745 28.1505 38.0625 28.875 38.0625C29.5995 38.0625 30.1875 37.4745 30.1875 36.75C30.1875 36.0255 29.5995 35.4375 28.875 35.4375Z" fill="#D62828"/>
<path d="M32.8125 39.375C32.8125 40.0995 33.4005 40.6875 34.125 40.6875C34.8495 40.6875 35.4375 40.0995 35.4375 39.375C35.4375 38.6505 34.8495 38.0625 34.125 38.0625C33.4005 38.0625 32.8125 38.6505 32.8125 39.375Z" fill="#D62828"/>
<path d="M36.75 35.4375C37.4745 35.4375 38.0625 34.8495 38.0625 34.125C38.0625 33.4005 37.4745 32.8125 36.75 32.8125C36.0255 32.8125 35.4375 33.4005 35.4375 34.125C35.4375 34.8495 36.0255 35.4375 36.75 35.4375Z" fill="#D62828"/>
<path d="M48.5625 32.8125C49.287 32.8125 49.875 32.2245 49.875 31.5C49.875 30.7755 49.287 30.1875 48.5625 30.1875C47.838 30.1875 47.25 30.7755 47.25 31.5C47.25 32.2245 47.838 32.8125 48.5625 32.8125Z" fill="#D62828"/>
<path d="M42 30.1875C42.7245 30.1875 43.3125 29.5995 43.3125 28.875C43.3125 28.1505 42.7245 27.5625 42 27.5625C41.2755 27.5625 40.6875 28.1505 40.6875 28.875C40.6875 29.5995 41.2755 30.1875 42 30.1875Z" fill="#D62828"/>
<path d="M14.4375 14.4375H11.8125C11.8125 15.162 11.2232 15.75 10.5 15.75C9.77681 15.75 9.1875 15.162 9.1875 14.4375H6.5625C6.5625 16.6084 8.32912 18.375 10.5 18.375C12.6709 18.375 14.4375 16.6084 14.4375 14.4375Z" fill="#D62828"/>
<path d="M65.625 10.5V17.9379L61.95 22.8375C61.6967 23.1748 61.6219 23.6132 61.7466 24.0148C61.8726 24.4191 62.1836 24.7354 62.5839 24.8679L65.625 25.8838V30.1875C65.625 35.2524 69.7463 39.375 74.8125 39.375H76.125V44.8849L71.5063 45.9099C67.2709 46.8523 64.3125 50.5417 64.3125 54.8796V82.6875H66.9375V54.8796C66.9375 51.7808 69.0506 49.1452 72.076 48.4732L77.7223 47.2185C78.3221 47.0846 78.75 46.5531 78.75 45.9375V38.0625C78.75 37.3367 78.162 36.75 77.4375 36.75H74.8125C71.6441 36.75 68.9929 34.4912 68.3826 31.5H73.5V28.875H68.25V24.9375C68.25 24.3718 67.8891 23.8717 67.3523 23.6933L65.142 22.9556L67.9875 19.1625C68.1581 18.9354 68.25 18.6598 68.25 18.375V10.5C68.25 6.88144 71.194 3.9375 74.8125 3.9375H82.6875V1.3125H74.8125C69.7463 1.3125 65.625 5.43506 65.625 10.5Z" fill="#D62828"/>
<path d="M73.5 15.75C72.7768 15.75 72.1875 15.162 72.1875 14.4375H69.5625C69.5625 16.6084 71.3291 18.375 73.5 18.375C75.6709 18.375 77.4375 16.6084 77.4375 14.4375H74.8125C74.8125 15.162 74.2232 15.75 73.5 15.75Z" fill="#D62828"/>
<path d="M51.1875 43.3125C51.912 43.3125 52.5 42.7245 52.5 42C52.5 41.2755 51.912 40.6875 51.1875 40.6875C50.463 40.6875 49.875 41.2755 49.875 42C49.875 42.7245 50.463 43.3125 51.1875 43.3125Z" fill="#D62828"/>
<path d="M59.0625 34.125C58.338 34.125 57.75 34.713 57.75 35.4375C57.75 36.162 58.338 36.75 59.0625 36.75C59.787 36.75 60.375 36.162 60.375 35.4375C60.375 34.713 59.787 34.125 59.0625 34.125Z" fill="#D62828"/>
</svg>
