<svg width="84" height="84" viewBox="0 0 84 84" fill="none" xmlns="http://www.w3.org/2000/svg">
<path d="M54.6906 28.1138C54.389 28.1143 54.0967 28.0099 53.8637 27.8185C51.1502 25.6111 47.8696 24.2132 44.3979 23.7852C42.8131 23.5712 41.2066 23.5712 39.6218 23.7852C36.1428 24.2125 32.8551 25.6128 30.1363 27.8251C29.8652 28.0305 29.5249 28.1227 29.1871 28.0821C28.8494 28.0416 28.5406 27.8715 28.3258 27.6077C28.111 27.3439 28.007 27.007 28.0358 26.668C28.0646 26.3291 28.2238 26.0145 28.4799 25.7907C31.575 23.2709 35.3181 21.6755 39.2792 21.1877C41.0918 20.9423 42.9292 20.9423 44.7418 21.1877C48.6949 21.6757 52.4304 23.2678 55.5201 25.7815C55.73 25.9527 55.8819 26.1847 55.9548 26.4456C56.0276 26.7066 56.018 26.9837 55.9271 27.2389C55.8362 27.4942 55.6686 27.715 55.4472 27.8712C55.2258 28.0274 54.9615 28.1112 54.6906 28.1112V28.1138Z" fill="#D62828"/>
<path d="M42 63C41.0829 63.0039 40.1666 62.9425 39.2582 62.8163C35.3049 62.3262 31.5698 60.7318 28.4813 58.216C28.3408 58.1096 28.2233 57.9759 28.1356 57.8231C28.0479 57.6703 27.9919 57.5013 27.9708 57.3264C27.9498 57.1514 27.9643 56.974 28.0133 56.8048C28.0623 56.6355 28.1449 56.4779 28.2562 56.3412C28.3674 56.2046 28.5051 56.0917 28.6609 56.0094C28.8167 55.9271 28.9875 55.877 29.163 55.8621C29.3386 55.8472 29.5154 55.8678 29.6828 55.9227C29.8503 55.9776 30.005 56.0657 30.1376 56.1816C32.8511 58.389 36.1318 59.7869 39.6034 60.2149C41.1883 60.4289 42.7947 60.4289 44.3796 60.2149C47.8581 59.7887 51.1458 58.3898 53.865 56.179C54.1361 55.9735 54.4764 55.8814 54.8142 55.9219C55.1519 55.9625 55.4608 56.1326 55.6755 56.3964C55.8903 56.6602 55.9943 56.997 55.9655 57.336C55.9368 57.675 55.7775 57.9895 55.5214 58.2134C52.4264 60.7331 48.6832 62.3285 44.7221 62.8163C43.8203 62.9419 42.9106 63.0033 42 63Z" fill="#D62828"/>
<path d="M26.775 56.0438C26.5868 56.0442 26.4008 56.0039 26.2297 55.9255C26.0587 55.8471 25.9066 55.7325 25.7841 55.5897C23.117 52.5311 21.4189 48.749 20.9055 44.7235C20.7705 43.8221 20.7055 42.9115 20.7113 42.0001C20.7063 41.0775 20.773 40.156 20.9108 39.2438C21.4283 35.2318 23.1242 31.4635 25.7841 28.4157C25.8944 28.2778 26.0315 28.1635 26.187 28.0798C26.3426 27.9961 26.5134 27.9447 26.6893 27.9286C26.8652 27.9125 27.0426 27.932 27.2108 27.9861C27.3789 28.0402 27.5344 28.1276 27.668 28.2433C27.8015 28.3589 27.9104 28.5002 27.988 28.6589C28.0656 28.8176 28.1104 28.9903 28.1197 29.1667C28.1289 29.3431 28.1025 29.5196 28.0419 29.6855C27.9814 29.8515 27.888 30.0035 27.7673 30.1325C25.4406 32.8002 23.9587 36.0989 23.5095 39.61C23.3898 40.401 23.3318 41.2001 23.3363 42.0001C23.3308 42.7907 23.387 43.5806 23.5043 44.3626C23.9497 47.8871 25.4336 51.1995 27.7673 53.8782C27.9301 54.0685 28.035 54.3015 28.0697 54.5495C28.1044 54.7976 28.0674 55.0504 27.9631 55.278C27.8587 55.5057 27.6914 55.6988 27.4809 55.8345C27.2704 55.9702 27.0255 56.0428 26.775 56.0438Z" fill="#D62828"/>
<path d="M57.225 56.0438C56.9736 56.0437 56.7275 55.9714 56.516 55.8354C56.3045 55.6995 56.1365 55.5056 56.0319 55.2769C55.9274 55.0483 55.8908 54.7944 55.9264 54.5455C55.962 54.2966 56.0683 54.0632 56.2328 53.873C58.5594 51.2052 60.0413 47.9066 60.4905 44.3954C60.6105 43.6027 60.6684 42.8018 60.6638 42.0001C60.6692 41.2094 60.613 40.4195 60.4958 39.6376C60.0503 36.113 58.5664 32.8006 56.2328 30.122C56.1121 29.993 56.0186 29.841 55.9581 29.675C55.8975 29.5091 55.8711 29.3326 55.8803 29.1562C55.8896 28.9798 55.9344 28.8071 56.012 28.6484C56.0896 28.4898 56.1985 28.3484 56.332 28.2328C56.4656 28.1171 56.6211 28.0297 56.7893 27.9756C56.9574 27.9215 57.1348 27.902 57.3107 27.9181C57.4866 27.9342 57.6574 27.9856 57.813 28.0693C57.9685 28.153 58.1056 28.2673 58.2159 28.4052C60.883 31.4638 62.5811 35.2459 63.0945 39.2714C63.2298 40.1746 63.2948 41.0869 63.2888 42.0001C63.2937 42.9226 63.227 43.8441 63.0893 44.7563C62.5718 48.7683 60.8758 52.5366 58.2159 55.5845C58.0939 55.7282 57.9421 55.8438 57.771 55.9231C57.5999 56.0024 57.4136 56.0436 57.225 56.0438Z" fill="#D62828"/>
<path d="M13.125 47.2501C12.9212 47.2501 12.7203 47.2027 12.538 47.1115C12.3558 47.0204 12.1973 46.8881 12.075 46.7251C11.0529 45.3636 10.4995 43.7074 10.4979 42.0049C10.4962 40.3024 11.0463 38.6452 12.0658 37.2817C12.2229 37.0683 12.4408 36.9075 12.691 36.8203C12.9412 36.7332 13.2119 36.7238 13.4676 36.7934C15.9564 37.4691 18.5066 37.8942 21.0801 38.0626C21.4738 38.0875 21.8676 38.1138 22.2456 38.1256C22.418 38.1312 22.5876 38.1707 22.7447 38.2419C22.9018 38.3131 23.0433 38.4145 23.1612 38.5404C23.279 38.6664 23.3709 38.8143 23.4316 38.9757C23.4923 39.1372 23.5205 39.309 23.5148 39.4814C23.4974 39.8269 23.3467 40.1522 23.0943 40.3887C22.8418 40.6252 22.5074 40.7545 22.1616 40.7493C21.7534 40.7362 21.3321 40.7099 20.9121 40.6824C18.487 40.5241 16.0806 40.1521 13.7209 39.5707C13.3284 40.3203 13.1239 41.154 13.125 42.0001C13.1269 42.8451 13.3303 43.6775 13.7183 44.4282C16.08 43.8455 18.4886 43.4722 20.916 43.3126C21.336 43.285 21.7573 43.2588 22.1655 43.2457H22.2088C22.5569 43.2403 22.8929 43.3734 23.1428 43.6157C23.3928 43.858 23.5363 44.1897 23.5417 44.5378C23.5471 44.8859 23.4139 45.2219 23.1716 45.4719C22.9293 45.7218 22.5976 45.8653 22.2495 45.8707C21.8702 45.8825 21.4764 45.9087 21.084 45.9337C18.5106 46.102 15.9604 46.5272 13.4715 47.2029C13.3587 47.2343 13.2421 47.2502 13.125 47.2501Z" fill="#D62828"/>
<path d="M70.875 47.2501C70.7588 47.2503 70.6432 47.2349 70.5311 47.2042C68.0423 46.5285 65.4921 46.1034 62.9186 45.935C62.5249 45.91 62.1311 45.8838 61.7531 45.872C61.5808 45.8693 61.4106 45.8327 61.2524 45.7643C61.0942 45.6959 60.951 45.5969 60.831 45.4732C60.5887 45.2232 60.4556 44.8872 60.461 44.5391C60.4664 44.191 60.6098 43.8593 60.8598 43.617C61.1097 43.3747 61.4457 43.2416 61.7938 43.247H61.8371C62.2453 43.2601 62.6666 43.2864 63.0866 43.3139C65.5139 43.4726 67.9225 43.8451 70.2844 44.4269C70.6712 43.6764 70.8737 42.8445 70.875 42.0001C70.8744 41.1545 70.6686 40.3218 70.2752 39.5733C67.9156 40.1556 65.5092 40.5285 63.084 40.6876C62.664 40.7152 62.2427 40.7414 61.8345 40.7545C61.4895 40.7568 61.1567 40.6265 60.9049 40.3906C60.6531 40.1547 60.5015 39.8311 60.4813 39.4867C60.4755 39.3143 60.5038 39.1424 60.5645 38.981C60.6251 38.8195 60.717 38.6716 60.8349 38.5457C60.9528 38.4198 61.0943 38.3183 61.2514 38.2471C61.4085 38.176 61.5781 38.1364 61.7505 38.1309C62.1298 38.119 62.5236 38.0928 62.916 38.0679C65.4895 37.8995 68.0396 37.4743 70.5285 36.7987C70.7841 36.7291 71.0548 36.7385 71.305 36.8256C71.5552 36.9127 71.7732 37.0736 71.9303 37.2869C72.9491 38.6496 73.4991 40.3055 73.4982 42.0069C73.4973 43.7083 72.9453 45.3636 71.925 46.7251C71.8027 46.8881 71.6442 47.0204 71.462 47.1115C71.2797 47.2027 71.0788 47.2501 70.875 47.2501Z" fill="#D62828"/>
<path d="M44.5594 23.7958C44.2113 23.7958 43.8774 23.6575 43.6313 23.4113C43.3852 23.1652 43.2469 22.8313 43.2469 22.4833C43.2469 21.9583 43.2744 21.4451 43.3164 20.8991C43.4743 18.4796 43.8459 16.0789 44.4268 13.7249C43.6781 13.3321 42.8455 13.1263 42 13.1251C41.1547 13.1279 40.322 13.3312 39.5706 13.7184C40.1548 16.0799 40.5285 18.4886 40.6875 20.9161C40.7282 21.4411 40.7558 21.9661 40.7558 22.4833C40.7558 22.8313 40.6175 23.1652 40.3713 23.4113C40.1252 23.6575 39.7914 23.7958 39.4433 23.7958C39.0952 23.7958 38.7613 23.6575 38.5152 23.4113C38.269 23.1652 38.1308 22.8313 38.1308 22.4833C38.1308 22.0304 38.1058 21.5789 38.0691 21.1012C37.901 18.5211 37.4754 15.9644 36.7986 13.469C36.7294 13.2157 36.7379 12.9474 36.8228 12.6989C36.9077 12.4504 37.0653 12.2331 37.275 12.0751C38.637 11.0513 40.2943 10.4968 41.9983 10.4949C43.7022 10.493 45.3607 11.0438 46.725 12.0646C46.9384 12.2217 47.0992 12.4397 47.1863 12.6899C47.2735 12.94 47.2829 13.2108 47.2133 13.4664C46.5378 15.9553 46.1126 18.5055 45.9441 21.0789C45.906 21.5737 45.8811 22.0252 45.8811 22.478C45.8818 22.6516 45.848 22.8236 45.7818 22.984C45.7156 23.1445 45.6182 23.2902 45.4953 23.4127C45.3723 23.5353 45.2263 23.6323 45.0657 23.698C44.905 23.7637 44.733 23.797 44.5594 23.7958Z" fill="#D62828"/>
<path d="M42 73.5001C40.2966 73.497 38.6396 72.9446 37.275 71.9251C37.066 71.7671 36.909 71.5502 36.8244 71.3022C36.7397 71.0543 36.7312 70.7867 36.7999 70.5338C37.4753 68.0449 37.9005 65.4948 38.0691 62.9213C38.1071 62.4265 38.1321 61.975 38.1321 61.5222C38.1321 61.1741 38.2703 60.8403 38.5165 60.5941C38.7626 60.348 39.0965 60.2097 39.4446 60.2097C39.7927 60.2097 40.1265 60.348 40.3726 60.5941C40.6188 60.8403 40.7571 61.1741 40.7571 61.5222C40.7571 62.0472 40.7295 62.5604 40.6875 63.1064C40.5293 65.5281 40.1568 67.9311 39.5745 70.2871C40.3252 70.6719 41.1564 70.8734 42 70.8751C42.8455 70.8739 43.6781 70.6681 44.4268 70.2753C43.8441 67.9157 43.4712 65.5093 43.3125 63.0841C43.2718 62.5591 43.2443 62.0341 43.2443 61.517C43.2443 61.1689 43.3825 60.835 43.6287 60.5889C43.8748 60.3427 44.2087 60.2045 44.5568 60.2045C44.9049 60.2045 45.2387 60.3427 45.4848 60.5889C45.731 60.835 45.8693 61.1689 45.8693 61.517C45.8693 61.9698 45.8942 62.4213 45.9309 62.899C46.099 65.4791 46.5246 68.0359 47.2014 70.5312C47.271 70.7868 47.2616 71.0576 47.1745 71.3077C47.0874 71.5579 46.9265 71.7759 46.7132 71.933C45.3507 72.9471 43.6984 73.4964 42 73.5001Z" fill="#D62828"/>
<path d="M30.1875 35.4376C29.9426 35.4391 29.7022 35.372 29.4935 35.244C29.2847 35.1159 29.116 34.9321 29.0063 34.7131C27.7941 32.287 26.0695 30.1531 23.9519 28.4587C21.8342 26.7643 19.3739 25.55 16.7409 24.8996C16.5578 24.8543 16.3865 24.7701 16.2388 24.6526C16.0911 24.5352 15.9705 24.3872 15.8852 24.2189C15.7999 24.0506 15.7518 23.8659 15.7443 23.6774C15.7369 23.4888 15.7701 23.3009 15.8419 23.1264C16.5147 21.4933 17.504 20.0094 18.7529 18.7603C20.0017 17.5113 21.4854 16.5217 23.1184 15.8486C23.2929 15.7766 23.4809 15.7431 23.6695 15.7504C23.8581 15.7576 24.043 15.8055 24.2114 15.8907C24.3798 15.976 24.5279 16.0965 24.6455 16.2442C24.7631 16.3918 24.8475 16.5631 24.8929 16.7463C25.5433 19.3794 26.7575 21.8399 28.4516 23.958C30.1457 26.0761 32.2793 27.8012 34.7051 29.0143C34.8647 29.088 35.0078 29.193 35.1261 29.3231C35.2443 29.4532 35.3352 29.6057 35.3933 29.7715C35.4515 29.9374 35.4757 30.1133 35.4646 30.2887C35.4535 30.4641 35.4073 30.6355 35.3287 30.7927C35.2501 30.95 35.1407 31.0898 35.007 31.2039C34.8733 31.3181 34.7181 31.4042 34.5505 31.4572C34.3829 31.5102 34.2064 31.529 34.0314 31.5125C33.8564 31.4959 33.6865 31.4444 33.5318 31.361C31.0105 30.1002 28.7636 28.3529 26.9205 26.22C25.0775 24.087 23.6747 21.6104 22.7929 18.9329C21.191 19.8659 19.8587 21.1987 18.9263 22.8009C21.604 23.6818 24.0808 25.084 26.2141 26.9267C28.3473 28.7693 30.0947 31.016 31.3556 33.5371C31.4327 33.6914 31.4787 33.8593 31.4909 34.0313C31.5031 34.2034 31.4812 34.3761 31.4266 34.5397C31.372 34.7032 31.2857 34.8545 31.1726 34.9847C31.0596 35.1149 30.9219 35.2215 30.7676 35.2985C30.5876 35.3892 30.389 35.4368 30.1875 35.4376Z" fill="#D62828"/>
<path d="M60.375 68.2501C60.0818 68.2502 59.7971 68.1522 59.5661 67.9716C59.3351 67.7911 59.1712 67.5384 59.1006 67.2539C58.4507 64.6203 57.2366 62.1594 55.5422 60.0412C53.8478 57.923 51.7136 56.1982 49.287 54.9859C49.1329 54.9084 48.9956 54.8012 48.8829 54.6706C48.7703 54.54 48.6844 54.3884 48.6303 54.2246C48.5762 54.0608 48.5549 53.888 48.5676 53.7159C48.5802 53.5439 48.6267 53.376 48.7043 53.2219C48.7818 53.0678 48.889 52.9305 49.0196 52.8179C49.1502 52.7052 49.3018 52.6193 49.4656 52.5652C49.6294 52.5111 49.8022 52.4898 49.9743 52.5025C50.1463 52.5152 50.3142 52.5616 50.4683 52.6392C52.9899 53.8999 55.237 55.6474 57.0799 57.7809C58.9228 59.9144 60.3251 62.3917 61.2058 65.0699C62.8066 64.1345 64.1389 62.8018 65.0738 61.2006C62.3958 60.3194 59.9188 58.917 57.7853 57.0741C55.6519 55.2313 53.9042 52.9844 52.6431 50.4631C52.4864 50.1515 52.46 49.7905 52.5695 49.4594C52.679 49.1284 52.9156 48.8544 53.2271 48.6977C53.5387 48.5411 53.8997 48.5146 54.2307 48.6242C54.5618 48.7337 54.8358 48.9703 54.9924 49.2818C56.2046 51.7079 57.9292 53.8419 60.0468 55.5362C62.1645 57.2306 64.6248 58.445 67.2578 59.0954C67.4411 59.1406 67.6125 59.2249 67.7603 59.3424C67.9081 59.46 68.0288 59.608 68.1142 59.7765C68.1995 59.9449 68.2475 60.1298 68.2549 60.3185C68.2622 60.5072 68.2288 60.6953 68.1568 60.8699C67.4839 62.5028 66.4945 63.9864 65.2456 65.2352C63.9968 66.484 62.5132 67.4734 60.8803 68.1464C60.7203 68.2138 60.5486 68.249 60.375 68.2501Z" fill="#D62828"/>
<path d="M23.625 68.2501C23.4535 68.25 23.2837 68.2166 23.1249 68.1516C21.4919 67.4785 20.0083 66.4889 18.7594 65.2399C17.5106 63.9908 16.5212 62.5069 15.8484 60.8738C15.7767 60.6993 15.7434 60.5113 15.7509 60.3228C15.7584 60.1343 15.8064 59.9495 15.8918 59.7812C15.9771 59.6129 16.0977 59.465 16.2454 59.3476C16.3931 59.2301 16.5643 59.1459 16.7475 59.1006C19.3804 58.4502 21.8408 57.2359 23.9584 55.5415C26.0761 53.8471 27.8006 51.7132 29.0128 49.2871C29.1695 48.9755 29.4435 48.7389 29.7745 48.6294C30.1056 48.5199 30.4666 48.5463 30.7781 48.703C31.0897 48.8596 31.3262 49.1336 31.4358 49.4647C31.5453 49.7957 31.5188 50.1568 31.3622 50.4683C30.101 52.9899 28.3532 55.2369 26.2195 57.0798C24.0858 58.9226 21.6084 60.325 18.9302 61.2059C19.3942 62.0039 19.9608 62.7377 20.6154 63.3886C21.2676 64.0427 22.0017 64.6096 22.7994 65.0751C23.6801 62.3968 25.0825 59.9193 26.9257 57.7858C28.7689 55.6522 31.0163 53.9048 33.5383 52.6444C33.693 52.561 33.8629 52.5095 34.0379 52.493C34.2129 52.4765 34.3895 52.4953 34.557 52.5483C34.7246 52.6013 34.8799 52.6874 35.0135 52.8015C35.1472 52.9157 35.2566 53.0555 35.3352 53.2127C35.4138 53.3699 35.4601 53.5413 35.4712 53.7167C35.4823 53.8922 35.458 54.068 35.3999 54.2339C35.3417 54.3998 35.2508 54.5523 35.1326 54.6824C35.0144 54.8125 34.8713 54.9175 34.7117 54.9912C32.2855 56.2038 30.1517 57.9288 28.4575 60.0469C26.7634 62.1651 25.5494 64.6258 24.8994 67.2591C24.8278 67.5427 24.6635 67.7942 24.4326 67.9737C24.2017 68.1532 23.9175 68.2505 23.625 68.2501Z" fill="#D62828"/>
<path d="M53.8125 35.4376C53.6092 35.4376 53.4087 35.39 53.2271 35.2985C53.0728 35.2215 52.9352 35.1149 52.8221 34.9847C52.709 34.8545 52.6227 34.7032 52.5681 34.5397C52.5135 34.3761 52.4917 34.2034 52.5039 34.0313C52.5161 33.8593 52.562 33.6914 52.6391 33.5371C53.9003 31.0158 55.6479 28.7689 57.7814 26.926C59.9148 25.0832 62.3919 23.6807 65.0698 22.7996C64.1344 21.1992 62.8022 19.867 61.2019 18.9316C60.3204 21.6092 58.9178 24.0859 57.0749 26.2191C55.2321 28.3523 52.9854 30.0998 50.4643 31.361C50.3102 31.4386 50.1424 31.485 49.9703 31.4977C49.7983 31.5104 49.6254 31.4891 49.4616 31.435C49.2978 31.3808 49.1463 31.295 49.0157 31.1823C48.885 31.0696 48.7779 30.9323 48.7003 30.7783C48.6228 30.6242 48.5763 30.4563 48.5636 30.2843C48.5509 30.1122 48.5722 29.9394 48.6264 29.7756C48.6805 29.6118 48.7663 29.4602 48.879 29.3296C48.9917 29.199 49.129 29.0918 49.2831 29.0143C51.7093 27.8016 53.8433 26.0766 55.5377 23.9585C57.232 21.8403 58.4463 19.3796 59.0966 16.7463C59.1423 16.5632 59.2269 16.3921 59.3447 16.2446C59.4624 16.0972 59.6106 15.9769 59.7791 15.8919C59.9471 15.8058 60.1319 15.7575 60.3205 15.7502C60.5091 15.743 60.697 15.777 60.8711 15.8499C62.5042 16.5222 63.9879 17.5113 65.2368 18.7599C66.4857 20.0086 67.475 21.4922 68.1476 23.1251C68.2196 23.2997 68.253 23.4877 68.2457 23.6764C68.2383 23.8651 68.1903 24.05 68.105 24.2185C68.0196 24.3869 67.8989 24.535 67.7511 24.6525C67.6033 24.7701 67.4319 24.8543 67.2486 24.8996C64.6175 25.5513 62.1593 26.7663 60.0435 28.4606C57.9277 30.1549 56.2048 32.2882 54.9938 34.7131C54.8841 34.9321 54.7153 35.1159 54.5065 35.244C54.2978 35.372 54.0574 35.4391 53.8125 35.4376Z" fill="#D62828"/>
<path d="M49.875 47.25C48.8366 47.25 47.8216 46.9421 46.9583 46.3652C46.0949 45.7883 45.422 44.9684 45.0246 44.0091C44.6273 43.0498 44.5233 41.9942 44.7259 40.9758C44.9285 39.9574 45.4285 39.0219 46.1627 38.2877C46.8969 37.5535 47.8324 37.0535 48.8508 36.8509C49.8692 36.6483 50.9248 36.7523 51.8841 37.1496C52.8434 37.547 53.6633 38.2199 54.2402 39.0833C54.8171 39.9466 55.125 40.9617 55.125 42C55.125 43.3924 54.5719 44.7277 53.5873 45.7123C52.6027 46.6969 51.2674 47.25 49.875 47.25ZM49.875 39.375C49.3558 39.375 48.8483 39.529 48.4166 39.8174C47.985 40.1058 47.6485 40.5158 47.4498 40.9955C47.2511 41.4751 47.1992 42.0029 47.3004 42.5121C47.4017 43.0213 47.6517 43.489 48.0188 43.8562C48.386 44.2233 48.8537 44.4733 49.3629 44.5746C49.8721 44.6759 50.3999 44.6239 50.8795 44.4252C51.3592 44.2265 51.7692 43.8901 52.0576 43.4584C52.346 43.0267 52.5 42.5192 52.5 42C52.5 41.3038 52.2234 40.6361 51.7312 40.1438C51.2389 39.6516 50.5712 39.375 49.875 39.375Z" fill="#D62828"/>
<path d="M34.125 47.25C33.0867 47.25 32.0716 46.9421 31.2083 46.3652C30.3449 45.7883 29.672 44.9684 29.2746 44.0091C28.8773 43.0498 28.7733 41.9942 28.9759 40.9758C29.1785 39.9574 29.6785 39.0219 30.4127 38.2877C31.1469 37.5535 32.0824 37.0535 33.1008 36.8509C34.1192 36.6483 35.1748 36.7523 36.1341 37.1496C37.0934 37.547 37.9133 38.2199 38.4902 39.0833C39.0671 39.9466 39.375 40.9617 39.375 42C39.375 43.3924 38.8219 44.7277 37.8373 45.7123C36.8527 46.6969 35.5174 47.25 34.125 47.25ZM34.125 39.375C33.6058 39.375 33.0983 39.529 32.6666 39.8174C32.235 40.1058 31.8985 40.5158 31.6998 40.9955C31.5011 41.4751 31.4492 42.0029 31.5504 42.5121C31.6517 43.0213 31.9017 43.489 32.2688 43.8562C32.636 44.2233 33.1037 44.4733 33.6129 44.5746C34.1221 44.6759 34.6499 44.6239 35.1295 44.4252C35.6092 44.2265 36.0192 43.8901 36.3076 43.4584C36.5961 43.0267 36.75 42.5192 36.75 42C36.75 41.3038 36.4734 40.6361 35.9812 40.1438C35.4889 39.6516 34.8212 39.375 34.125 39.375Z" fill="#D62828"/>
<path d="M43.3125 36.75C42.5337 36.75 41.7725 36.5191 41.1249 36.0864C40.4774 35.6538 39.9727 35.0388 39.6747 34.3193C39.3767 33.5998 39.2987 32.8081 39.4507 32.0443C39.6026 31.2805 39.9776 30.5789 40.5283 30.0283C41.0789 29.4776 41.7805 29.1026 42.5443 28.9507C43.3081 28.7987 44.0998 28.8767 44.8193 29.1747C45.5388 29.4727 46.1538 29.9774 46.5864 30.6249C47.0191 31.2725 47.25 32.0337 47.25 32.8125C47.25 33.8568 46.8352 34.8583 46.0967 35.5967C45.3583 36.3352 44.3568 36.75 43.3125 36.75ZM43.3125 31.5C43.0529 31.5 42.7992 31.577 42.5833 31.7212C42.3675 31.8654 42.1993 32.0704 42.0999 32.3102C42.0006 32.5501 41.9746 32.814 42.0252 33.0686C42.0759 33.3232 42.2009 33.557 42.3844 33.7406C42.568 33.9241 42.8018 34.0491 43.0564 34.0998C43.311 34.1504 43.5749 34.1244 43.8148 34.0251C44.0546 33.9258 44.2596 33.7575 44.4038 33.5417C44.548 33.3258 44.625 33.0721 44.625 32.8125C44.625 32.4644 44.4867 32.1306 44.2406 31.8844C43.9944 31.6383 43.6606 31.5 43.3125 31.5Z" fill="#D62828"/>
<path d="M40.6875 55.125C39.9087 55.125 39.1475 54.8941 38.4999 54.4614C37.8524 54.0288 37.3477 53.4138 37.0497 52.6943C36.7517 51.9748 36.6737 51.1831 36.8257 50.4193C36.9776 49.6555 37.3526 48.9539 37.9033 48.4033C38.4539 47.8526 39.1555 47.4776 39.9193 47.3257C40.6831 47.1737 41.4748 47.2517 42.1943 47.5497C42.9138 47.8477 43.5288 48.3524 43.9614 48.9999C44.3941 49.6475 44.625 50.4087 44.625 51.1875C44.625 52.2318 44.2102 53.2333 43.4717 53.9717C42.7333 54.7102 41.7318 55.125 40.6875 55.125ZM40.6875 49.875C40.4279 49.875 40.1742 49.952 39.9583 50.0962C39.7425 50.2404 39.5742 50.4454 39.4749 50.6852C39.3756 50.9251 39.3496 51.189 39.4002 51.4436C39.4509 51.6982 39.5759 51.932 39.7594 52.1156C39.943 52.2991 40.1768 52.4241 40.4314 52.4748C40.686 52.5254 40.9499 52.4994 41.1898 52.4001C41.4296 52.3008 41.6346 52.1325 41.7788 51.9167C41.923 51.7008 42 51.4471 42 51.1875C42 50.8394 41.8617 50.5056 41.6156 50.2594C41.3694 50.0133 41.0356 49.875 40.6875 49.875Z" fill="#D62828"/>
<path d="M42 83.9999C41.8843 83.9997 41.7691 83.9842 41.6574 83.954C32.1578 81.4434 23.5564 76.3101 16.8368 69.1411C-1.97793 48.7869 3.13294 20.0169 3.77738 16.7999C3.82138 16.5809 3.92053 16.3768 4.06546 16.2068C4.21038 16.0369 4.39629 15.9067 4.60557 15.8287C10.1063 13.7812 15.6647 11.5801 21.1129 9.2898C27.9234 6.43117 34.7589 3.34549 41.4291 0.131173C41.6071 0.0451622 41.8023 0.000488281 42 0.000488281C42.1977 0.000488281 42.3929 0.0451622 42.5709 0.131173C49.2411 3.3468 56.0766 6.43117 62.8871 9.29111C68.3353 11.5801 73.8938 13.7812 79.3944 15.8326C79.6037 15.9107 79.7896 16.0408 79.9346 16.2108C80.0795 16.3807 80.1786 16.5849 80.2226 16.8039C80.8671 20.0169 85.9779 48.7869 67.1633 69.1411C60.4437 76.3101 51.8422 81.4434 42.3426 83.954C42.2309 83.9842 42.1157 83.9997 42 83.9999ZM6.21601 18.0324C5.26969 23.3624 1.80601 49.0152 18.7688 67.3587C25.0674 74.0788 33.1108 78.9149 42 81.3264C50.8892 78.9149 58.9326 74.0788 65.2313 67.3587C82.194 49.0152 78.7303 23.3624 77.784 18.0324C72.4723 16.0426 67.1226 13.9177 61.8699 11.71C55.2103 8.9118 48.5297 5.90617 42 2.7693C35.4703 5.90617 28.7897 8.9118 22.1301 11.71C16.8774 13.9124 11.5277 16.0426 6.21601 18.0324Z" fill="#D62828"/>
</svg>
